<?xml version="1.0" standalone="no"?>
<!DOCTYPE svg PUBLIC "-//W3C//DTD SVG 20010904//EN"
 "http://www.w3.org/TR/2001/REC-SVG-20010904/DTD/svg10.dtd">
<svg version="1.0" xmlns="http://www.w3.org/2000/svg"
 width="495.000000pt" height="495.000000pt" viewBox="0 0 495.000000 495.000000"
 preserveAspectRatio="xMidYMid meet">
<metadata>
Created by potrace 1.11, written by Peter Selinger 2001-2013
</metadata>
<g transform="translate(0.000000,495.000000) scale(0.100000,-0.100000)"
fill="#000000" stroke="none">
<path d="M2329 4946 c-2 -2 -40 -6 -84 -9 -44 -4 -93 -9 -110 -12 -16 -3 -59
-10 -95 -16 -388 -66 -783 -246 -1105 -504 -451 -360 -773 -897 -879 -1465
-39 -214 -54 -485 -35 -680 55 -584 303 -1120 707 -1526 119 -121 144 -143
254 -226 228 -174 501 -316 763 -395 87 -27 253 -66 325 -78 25 -4 53 -9 63
-11 138 -25 514 -24 687 2 791 121 1471 609 1833 1315 145 284 222 544 261
879 13 109 14 445 2 515 -3 17 -10 66 -17 110 -108 763 -599 1457 -1282 1815
-269 141 -568 238 -822 266 -27 3 -61 8 -75 10 -29 6 -386 14 -391 10z"/>
</g>
</svg>
